<svg width="643.8" height="89.4" viewBox="0 0 643.8 89.4" xmlns="http://www.w3.org/2000/svg"><g id="svgGroup" stroke-linecap="round" fill-rule="evenodd" font-size="9pt"  stroke-width="0.25mm" ><path d="M 481.2 67.2 L 478.2 67.2 L 478.2 19.4 L 480.8 19.4 L 481.2 26 L 481.4 26 A 30.066 30.066 0 0 1 483.301 23.23 Q 484.342 21.89 485.434 20.856 A 16.768 16.768 0 0 1 486.05 20.3 A 8.449 8.449 0 0 1 489.718 18.496 Q 490.997 18.201 492.494 18.2 A 10.725 10.725 0 0 1 492.5 18.2 Q 495.685 18.2 497.784 19.468 A 7.073 7.073 0 0 1 498.9 20.3 A 8.947 8.947 0 0 1 500.664 22.578 Q 501.638 24.325 502.2 26.8 A 46.791 46.791 0 0 1 504.095 24.149 Q 505.069 22.889 506.011 21.886 A 20.43 20.43 0 0 1 507.55 20.4 A 8.899 8.899 0 0 1 511.839 18.397 A 12.466 12.466 0 0 1 514.1 18.2 A 11.373 11.373 0 0 1 517.325 18.633 A 8.399 8.399 0 0 1 521.75 21.7 Q 524.296 25.064 524.396 31.844 A 37.961 37.961 0 0 1 524.4 32.4 L 524.4 67.2 L 521.4 67.2 L 521.4 32.8 A 27.784 27.784 0 0 0 521.136 28.79 Q 520.431 23.982 517.839 22.141 A 6.629 6.629 0 0 0 513.9 21 Q 510.4 21 507.9 23.4 A 18.66 18.66 0 0 0 506.169 25.334 Q 505.338 26.392 504.495 27.709 A 46.234 46.234 0 0 0 502.8 30.6 L 502.8 67.2 L 499.8 67.2 L 499.8 32.8 A 30.321 30.321 0 0 0 499.654 29.715 Q 499.32 26.466 498.227 24.428 A 8.153 8.153 0 0 0 497.95 23.95 A 5.975 5.975 0 0 0 493.656 21.104 A 8.527 8.527 0 0 0 492.3 21 Q 488.8 21 486.3 23.4 A 18.66 18.66 0 0 0 484.569 25.334 Q 483.738 26.392 482.895 27.709 A 46.234 46.234 0 0 0 481.2 30.6 L 481.2 67.2 Z M 358.2 58.4 L 360.4 56.2 Q 364.2 60.4 369.55 62.9 A 26.962 26.962 0 0 0 380.367 65.389 A 31.287 31.287 0 0 0 381.2 65.4 Q 389.6 65.4 394.6 61.45 A 13.249 13.249 0 0 0 398.168 57.27 Q 399.6 54.572 399.6 51.2 A 17.552 17.552 0 0 0 399.387 48.382 Q 398.981 45.889 397.8 44.15 A 13.895 13.895 0 0 0 393.597 40.156 A 16.358 16.358 0 0 0 393 39.8 Q 390 38.1 386.4 36.6 L 376.2 32 A 59.931 59.931 0 0 1 372.714 30.348 A 76.579 76.579 0 0 1 369.85 28.8 Q 366.5 26.9 364.15 23.8 Q 361.868 20.791 361.802 16.084 A 20.108 20.108 0 0 1 361.8 15.8 A 14.631 14.631 0 0 1 362.629 10.814 A 13.263 13.263 0 0 1 364.35 7.55 A 16.29 16.29 0 0 1 369.494 2.95 A 20.235 20.235 0 0 1 371.35 2 A 22.695 22.695 0 0 1 377.971 0.201 A 28.567 28.567 0 0 1 381.4 0 Q 387.7 0 392.55 2.35 A 33.188 33.188 0 0 1 396.565 4.634 Q 398.622 6.013 400.193 7.589 A 20.288 20.288 0 0 1 400.4 7.8 L 398.4 10 A 21.876 21.876 0 0 0 391.895 5.268 A 25.284 25.284 0 0 0 391.1 4.9 Q 386.8 3 381.4 3 A 25.226 25.226 0 0 0 376.361 3.476 Q 373.214 4.117 370.757 5.625 A 14.901 14.901 0 0 0 369.55 6.45 Q 365.115 9.813 365.003 15.314 A 14.071 14.071 0 0 0 365 15.6 A 13.073 13.073 0 0 0 365.295 18.457 Q 365.787 20.657 367.1 22.25 Q 369.2 24.8 372.15 26.35 Q 375.1 27.9 377.6 29 L 387.8 33.6 Q 391.7 35.2 395.15 37.3 Q 398.6 39.4 400.7 42.65 A 12.355 12.355 0 0 1 402.291 46.428 Q 402.689 48.039 402.776 49.924 A 23.367 23.367 0 0 1 402.8 51 Q 402.8 56 400.1 59.95 A 17.427 17.427 0 0 1 394.569 65.085 A 21.735 21.735 0 0 1 392.55 66.15 A 23.529 23.529 0 0 1 386.572 67.97 A 31.981 31.981 0 0 1 381.2 68.4 A 34.488 34.488 0 0 1 374.481 67.774 A 26.45 26.45 0 0 1 367.85 65.55 A 33.96 33.96 0 0 1 361.242 61.304 A 29.467 29.467 0 0 1 358.2 58.4 Z M 596.9 88.4 L 597.9 85.6 A 12.753 12.753 0 0 0 598.631 85.818 Q 599.041 85.928 599.513 86.03 A 25.353 25.353 0 0 0 600.1 86.15 Q 601.4 86.4 602.7 86.4 A 14.133 14.133 0 0 0 607.622 85.572 A 12.522 12.522 0 0 0 612.3 82.5 A 27.163 27.163 0 0 0 616.773 76.321 A 33.98 33.98 0 0 0 618.4 72.8 L 620.2 68.4 L 596.6 19.4 L 599.8 19.4 L 614.6 50.8 Q 616 53.8 617.8 57.4 Q 619.6 61 621.4 64.2 L 621.8 64.2 A 164.408 164.408 0 0 0 624.003 59.285 A 190.365 190.365 0 0 0 624.8 57.4 Q 626.3 53.8 627.6 50.8 L 640.8 19.4 L 643.8 19.4 L 620.8 74 Q 619.5 77.7 617.05 81.25 Q 614.6 84.8 610.95 87.1 A 14.91 14.91 0 0 1 604.772 89.257 A 19.063 19.063 0 0 1 602.4 89.4 A 13.371 13.371 0 0 1 601.036 89.327 Q 600.352 89.256 599.6 89.119 A 21.896 21.896 0 0 1 599.5 89.1 A 21.055 21.055 0 0 1 598.471 88.882 Q 597.971 88.762 597.548 88.629 A 9.063 9.063 0 0 1 596.9 88.4 Z M 118.8 60.8 L 120.6 58.4 Q 124.5 61.5 129.6 63.55 A 25.379 25.379 0 0 0 134.206 64.878 Q 137.909 65.6 142.6 65.6 A 31.521 31.521 0 0 0 146.896 65.327 Q 151.587 64.68 154.4 62.5 Q 157.573 60.041 158.229 57.016 A 7.602 7.602 0 0 0 158.4 55.4 Q 158.4 53.7 157.85 52.1 A 5.821 5.821 0 0 0 157.017 50.544 Q 156.453 49.778 155.6 49.05 A 10.115 10.115 0 0 0 154.285 48.115 Q 152.845 47.24 150.682 46.424 A 35.635 35.635 0 0 0 150.35 46.3 Q 146.879 45.029 141.065 43.854 A 127.698 127.698 0 0 0 140.8 43.8 Q 134.788 42.598 130.517 40.816 A 28.41 28.41 0 0 1 126.7 38.9 A 12.6 12.6 0 0 1 124.011 36.758 A 8.713 8.713 0 0 1 121.6 30.6 A 10.593 10.593 0 0 1 124.472 23.334 A 15.233 15.233 0 0 1 125.95 21.9 Q 130.127 18.347 139.054 18.206 A 47.23 47.23 0 0 1 139.8 18.2 A 29.384 29.384 0 0 1 146.01 18.889 A 36.192 36.192 0 0 1 149.4 19.8 Q 154.4 21.4 157.8 24 L 156 26.4 A 25.033 25.033 0 0 0 151.122 23.47 A 30.277 30.277 0 0 0 148.75 22.5 A 25.206 25.206 0 0 0 142.642 21.147 A 30.868 30.868 0 0 0 139.6 21 Q 134.03 21 130.847 22.289 A 11.082 11.082 0 0 0 130.7 22.35 A 13.499 13.499 0 0 0 128.719 23.373 Q 127.667 24.039 126.927 24.84 A 6.869 6.869 0 0 0 126.15 25.85 A 8.646 8.646 0 0 0 124.919 28.997 A 8.247 8.247 0 0 0 124.8 30.4 A 6.781 6.781 0 0 0 127.34 35.759 A 10.759 10.759 0 0 0 128.8 36.8 Q 132.8 39.2 141.2 40.9 A 109.696 109.696 0 0 1 145.835 41.936 Q 150.192 43.017 153.089 44.207 A 26.952 26.952 0 0 1 154 44.6 A 22.644 22.644 0 0 1 156.366 45.836 Q 158.832 47.331 159.961 49.089 A 6.848 6.848 0 0 1 160 49.15 A 10.36 10.36 0 0 1 161.444 53.106 A 13.573 13.573 0 0 1 161.6 55.2 A 10.508 10.508 0 0 1 159.639 61.3 A 13.066 13.066 0 0 1 159.35 61.7 Q 157.162 64.618 153.034 66.448 A 23.188 23.188 0 0 1 152.8 66.55 A 21.402 21.402 0 0 1 148.212 67.909 Q 146.045 68.308 143.563 68.383 A 38.543 38.543 0 0 1 142.4 68.4 A 41.994 41.994 0 0 1 135.078 67.789 A 32.816 32.816 0 0 1 128.95 66.1 A 54.432 54.432 0 0 1 123.756 63.79 Q 121.116 62.438 118.94 60.9 A 33.747 33.747 0 0 1 118.8 60.8 Z M 244.2 67.2 L 241.2 67.2 L 241.2 19.4 L 243.8 19.4 L 244.2 29 L 244.6 29 A 54.55 54.55 0 0 1 249.517 24.235 A 43.479 43.479 0 0 1 253.45 21.25 A 18.086 18.086 0 0 1 263.439 18.203 A 21.84 21.84 0 0 1 263.8 18.2 A 26.16 26.16 0 0 1 268.745 18.637 Q 271.549 19.177 273.713 20.388 A 12.673 12.673 0 0 1 276.9 22.9 A 14.389 14.389 0 0 1 279.763 27.774 Q 280.56 29.971 280.915 32.692 A 36.476 36.476 0 0 1 281.2 37.4 L 281.2 67.2 L 278.2 67.2 L 278.2 37.8 A 34.146 34.146 0 0 0 277.931 33.363 Q 277.244 28.133 274.8 25.15 A 10.442 10.442 0 0 0 270.024 21.92 Q 268.287 21.316 266.149 21.109 A 24.347 24.347 0 0 0 263.8 21 Q 258.4 21 254.1 23.85 A 38.15 38.15 0 0 0 250.99 26.17 Q 247.875 28.729 244.2 32.6 L 244.2 67.2 Z M 0 57.4 L 2.6 55.6 A 23.443 23.443 0 0 0 5.269 59.414 A 16.751 16.751 0 0 0 9.65 63.05 A 18.693 18.693 0 0 0 13.943 64.849 A 15.365 15.365 0 0 0 18 65.4 A 25.653 25.653 0 0 0 22.629 65.012 Q 27.827 64.056 30.6 60.75 A 14.677 14.677 0 0 0 33.197 55.999 Q 33.93 53.849 34.251 51.207 A 36.632 36.632 0 0 0 34.5 46.8 L 34.5 3.8 L 5.4 3.8 L 5.4 1.1 L 37.7 1.1 L 37.7 47.1 A 33.621 33.621 0 0 1 37.13 53.406 A 27.62 27.62 0 0 1 35.9 57.85 Q 34.1 62.7 29.8 65.55 Q 26.439 67.778 21.122 68.265 A 34.307 34.307 0 0 1 18 68.4 Q 12.5 68.4 7.6 65.6 A 18.732 18.732 0 0 1 0.357 58.086 A 22.802 22.802 0 0 1 0 57.4 Z M 63.8 27.8 L 62.2 25.4 A 21.765 21.765 0 0 1 63.404 24.549 Q 64.884 23.569 67.05 22.4 A 35.773 35.773 0 0 1 70.879 20.63 A 46.162 46.162 0 0 1 74.25 19.45 Q 78.3 18.2 82.6 18.2 A 26.702 26.702 0 0 1 86.699 18.496 Q 90.323 19.06 92.85 20.7 Q 96.7 23.2 98.45 27.3 A 22.086 22.086 0 0 1 100.173 35.011 A 25.641 25.641 0 0 1 100.2 36.2 L 100.2 67.2 L 97.6 67.2 L 97.2 59.8 L 97 59.8 A 46.887 46.887 0 0 1 90.184 64.363 A 55.165 55.165 0 0 1 87.4 65.8 A 26.492 26.492 0 0 1 80.988 67.971 A 22.806 22.806 0 0 1 76.6 68.4 Q 72.4 68.4 68.55 67.05 A 15.199 15.199 0 0 1 64.331 64.813 A 13.641 13.641 0 0 1 62.25 62.85 A 9.935 9.935 0 0 1 60.042 58.167 A 14.027 14.027 0 0 1 59.8 55.5 A 11.884 11.884 0 0 1 64.647 45.746 A 20.494 20.494 0 0 1 68.6 43.35 A 40.366 40.366 0 0 1 74.42 41.202 Q 80.798 39.331 90.34 38.136 A 203.571 203.571 0 0 1 97.2 37.4 A 24.244 24.244 0 0 0 96.095 30.039 A 22.909 22.909 0 0 0 95.9 29.45 Q 94.6 25.7 91.4 23.35 Q 88.903 21.517 84.823 21.114 A 24.686 24.686 0 0 0 82.4 21 Q 78.6 21 75.05 22.1 A 36.511 36.511 0 0 0 70.671 23.759 A 30.774 30.774 0 0 0 68.6 24.8 Q 66.38 26.025 64.746 27.133 A 29.495 29.495 0 0 0 63.8 27.8 Z M 423.8 27.8 L 422.2 25.4 A 21.765 21.765 0 0 1 423.404 24.549 Q 424.884 23.569 427.05 22.4 A 35.773 35.773 0 0 1 430.879 20.63 A 46.162 46.162 0 0 1 434.25 19.45 Q 438.3 18.2 442.6 18.2 A 26.702 26.702 0 0 1 446.699 18.496 Q 450.323 19.06 452.85 20.7 Q 456.7 23.2 458.45 27.3 A 22.086 22.086 0 0 1 460.173 35.011 A 25.641 25.641 0 0 1 460.2 36.2 L 460.2 67.2 L 457.6 67.2 L 457.2 59.8 L 457 59.8 A 46.887 46.887 0 0 1 450.184 64.363 A 55.165 55.165 0 0 1 447.4 65.8 A 26.492 26.492 0 0 1 440.988 67.971 A 22.806 22.806 0 0 1 436.6 68.4 Q 432.4 68.4 428.55 67.05 A 15.199 15.199 0 0 1 424.331 64.813 A 13.641 13.641 0 0 1 422.25 62.85 A 9.935 9.935 0 0 1 420.042 58.167 A 14.027 14.027 0 0 1 419.8 55.5 A 11.884 11.884 0 0 1 424.647 45.746 A 20.494 20.494 0 0 1 428.6 43.35 A 40.366 40.366 0 0 1 434.42 41.202 Q 440.798 39.331 450.34 38.136 A 203.571 203.571 0 0 1 457.2 37.4 A 24.244 24.244 0 0 0 456.095 30.039 A 22.909 22.909 0 0 0 455.9 29.45 Q 454.6 25.7 451.4 23.35 Q 448.903 21.517 444.823 21.114 A 24.686 24.686 0 0 0 442.4 21 Q 438.6 21 435.05 22.1 A 36.511 36.511 0 0 0 430.671 23.759 A 30.774 30.774 0 0 0 428.6 24.8 Q 426.38 26.025 424.746 27.133 A 29.495 29.495 0 0 0 423.8 27.8 Z M 544.2 89.4 L 541.2 89.4 L 541.2 19.4 L 543.8 19.4 L 544.2 26.6 L 544.4 26.6 A 32.584 32.584 0 0 1 552.36 20.944 A 36.823 36.823 0 0 1 553.05 20.6 A 24.713 24.713 0 0 1 558.267 18.728 A 20.088 20.088 0 0 1 562.8 18.2 Q 568.824 18.2 573.019 20.487 A 15.518 15.518 0 0 1 574.2 21.2 A 17.689 17.689 0 0 1 580.192 28.043 A 22.059 22.059 0 0 1 580.95 29.7 Q 583.2 35.2 583.2 42.6 A 34.801 34.801 0 0 1 582.618 49.127 A 24.823 24.823 0 0 1 580.05 56.45 A 24.671 24.671 0 0 1 575.756 62.213 A 21.583 21.583 0 0 1 571.8 65.3 Q 566.7 68.4 560.6 68.4 Q 557.2 68.4 552.6 66.55 Q 548 64.7 544.2 61.4 L 544 61.4 L 544.2 71.4 L 544.2 89.4 Z M 190.731 66.472 A 23.209 23.209 0 0 0 200.2 68.4 A 26.792 26.792 0 0 0 200.397 68.4 A 22.857 22.857 0 0 0 211.7 65.45 A 21.015 21.015 0 0 0 215.173 62.988 A 22.919 22.919 0 0 0 220.05 56.9 A 23.761 23.761 0 0 0 222.618 49.765 A 33.105 33.105 0 0 0 223.2 43.4 Q 223.2 35.4 220.05 29.75 A 26.063 26.063 0 0 0 219.336 28.547 A 21.496 21.496 0 0 0 211.7 21.15 A 22.548 22.548 0 0 0 209.669 20.129 A 23.209 23.209 0 0 0 200.2 18.2 A 26.792 26.792 0 0 0 200.003 18.201 A 22.857 22.857 0 0 0 188.7 21.15 A 20.794 20.794 0 0 0 184.95 23.867 A 23.052 23.052 0 0 0 180.35 29.75 Q 178.529 33.017 177.761 37.069 A 33.981 33.981 0 0 0 177.2 43.4 A 33.207 33.207 0 0 0 177.761 49.657 A 23.811 23.811 0 0 0 180.35 56.9 A 26.022 26.022 0 0 0 180.959 57.927 A 21.647 21.647 0 0 0 188.7 65.45 A 22.548 22.548 0 0 0 190.731 66.472 Z M 200.2 65.6 A 19.829 19.829 0 0 0 206.856 64.507 A 18.126 18.126 0 0 0 210.4 62.8 A 19.204 19.204 0 0 0 217.289 55.311 A 22.818 22.818 0 0 0 217.45 55 A 23.069 23.069 0 0 0 219.671 47.938 A 30.159 30.159 0 0 0 220 43.4 Q 220 36.8 217.45 31.75 A 20.125 20.125 0 0 0 212.9 25.736 A 19.017 19.017 0 0 0 210.4 23.85 A 18.479 18.479 0 0 0 200.996 21.014 A 22.309 22.309 0 0 0 200.2 21 A 19.434 19.434 0 0 0 193.795 22.032 A 17.613 17.613 0 0 0 190.05 23.85 A 19.797 19.797 0 0 0 183.504 30.823 A 23.69 23.69 0 0 0 183 31.75 A 23.277 23.277 0 0 0 180.68 39.236 A 30.011 30.011 0 0 0 180.4 43.4 Q 180.4 50 183 55 A 20.563 20.563 0 0 0 187.209 60.615 A 18.968 18.968 0 0 0 190.05 62.8 A 18.31 18.31 0 0 0 198.795 65.557 A 22.303 22.303 0 0 0 200.2 65.6 Z M 544.2 30.4 L 544.2 58 Q 548.7 62.1 553.3 63.85 A 38.01 38.01 0 0 0 555.945 64.754 Q 558.784 65.6 560.8 65.6 A 18.07 18.07 0 0 0 567.312 64.448 A 16.816 16.816 0 0 0 570.75 62.65 A 19.296 19.296 0 0 0 576.738 56.07 A 23.521 23.521 0 0 0 577.55 54.5 A 25.481 25.481 0 0 0 579.709 47.041 A 32.802 32.802 0 0 0 580 42.6 A 36.597 36.597 0 0 0 579.506 36.458 A 28.764 28.764 0 0 0 578.25 31.6 A 17.526 17.526 0 0 0 575.723 26.854 A 15.328 15.328 0 0 0 572.7 23.85 Q 569.36 21.346 564.089 21.042 A 25.925 25.925 0 0 0 562.6 21 A 16.406 16.406 0 0 0 558.674 21.506 Q 556.931 21.935 555.061 22.73 A 30.743 30.743 0 0 0 553.8 23.3 Q 549.302 25.456 544.805 29.806 A 50.867 50.867 0 0 0 544.2 30.4 Z M 97.2 56.4 L 97.2 40 Q 84.3 41.2 76.8 43.25 A 46.996 46.996 0 0 0 72.925 44.479 Q 68.414 46.144 66.15 48.3 Q 63 51.3 63 55.4 A 10.851 10.851 0 0 0 63.288 57.972 A 7.589 7.589 0 0 0 65.05 61.35 A 11.43 11.43 0 0 0 69.48 64.331 A 13.814 13.814 0 0 0 70.25 64.6 A 21.516 21.516 0 0 0 76.8 65.6 A 22.129 22.129 0 0 0 83.151 64.633 A 28.415 28.415 0 0 0 86.7 63.3 A 37.509 37.509 0 0 0 91.793 60.479 Q 94.125 58.954 96.516 56.975 A 63.187 63.187 0 0 0 97.2 56.4 Z M 457.2 56.4 L 457.2 40 Q 444.3 41.2 436.8 43.25 A 46.996 46.996 0 0 0 432.925 44.479 Q 428.414 46.144 426.15 48.3 Q 423 51.3 423 55.4 A 10.851 10.851 0 0 0 423.288 57.972 A 7.589 7.589 0 0 0 425.05 61.35 A 11.43 11.43 0 0 0 429.48 64.331 A 13.814 13.814 0 0 0 430.25 64.6 A 21.516 21.516 0 0 0 436.8 65.6 A 22.129 22.129 0 0 0 443.151 64.633 A 28.415 28.415 0 0 0 446.7 63.3 A 37.509 37.509 0 0 0 451.793 60.479 Q 454.125 58.954 456.516 56.975 A 63.187 63.187 0 0 0 457.2 56.4 Z" vector-effect="non-scaling-stroke"/></g></svg>