<svg width="230" height="87.65" viewBox="0 0 230 87.65" xmlns="http://www.w3.org/2000/svg"><g id="svgGroup" stroke-linecap="round" fill-rule="evenodd" font-size="9pt" stroke="#000" stroke-width="0.25mm" fill="#000" style="stroke:#000;stroke-width:0.25mm;fill:#000"><path d="M 120.3 62.2 L 124.5 57.4 Q 128 60.75 132.65 62.775 Q 136.973 64.658 142.895 64.79 A 40.496 40.496 0 0 0 143.8 64.8 Q 148.2 64.8 152.15 63.3 A 15.289 15.289 0 0 0 157.079 60.317 A 14.495 14.495 0 0 0 158.6 58.7 A 11.044 11.044 0 0 0 160.818 53.833 A 15.56 15.56 0 0 0 161.1 50.8 A 16.087 16.087 0 0 0 160.877 48.053 Q 160.592 46.409 159.943 45.056 A 9.785 9.785 0 0 0 159.75 44.675 A 9.118 9.118 0 0 0 158.095 42.5 Q 157.25 41.664 156.121 40.902 A 18.716 18.716 0 0 0 154.95 40.175 Q 151.658 38.29 145.815 36.565 A 87.234 87.234 0 0 0 145.25 36.4 A 86.709 86.709 0 0 1 139.2 34.419 A 65.629 65.629 0 0 1 133.85 32.175 A 25.212 25.212 0 0 1 129.639 29.677 A 18.935 18.935 0 0 1 126 26.175 A 13.034 13.034 0 0 1 123.487 20.588 A 18.245 18.245 0 0 1 123.15 17 Q 123.15 12.2 125.775 8.35 A 17.158 17.158 0 0 1 130.908 3.475 A 21.569 21.569 0 0 1 133.15 2.25 A 22.688 22.688 0 0 1 139.016 0.431 A 30.93 30.93 0 0 1 144.3 0 Q 150.668 0 155.458 1.685 A 23.919 23.919 0 0 1 156.175 1.95 Q 161.2 3.9 165.45 7.55 L 161.15 12.25 A 24.882 24.882 0 0 0 156.238 8.742 A 21.581 21.581 0 0 0 153.075 7.35 Q 148.75 5.85 144.3 5.85 A 22.319 22.319 0 0 0 139.43 6.365 A 19.304 19.304 0 0 0 137 7.075 A 13.571 13.571 0 0 0 133.725 8.782 A 11.511 11.511 0 0 0 131.6 10.75 A 8.629 8.629 0 0 0 129.75 14.757 A 12.03 12.03 0 0 0 129.55 17 Q 129.55 20.2 131.25 22.525 A 9.832 9.832 0 0 0 132.852 24.213 Q 133.706 24.935 134.816 25.613 A 24.069 24.069 0 0 0 136.975 26.775 Q 141 28.7 147.85 30.7 Q 152.85 32.1 157.4 34.275 Q 161.95 36.45 164.825 40.375 A 13.783 13.783 0 0 1 166.936 44.817 Q 167.461 46.676 167.625 48.878 A 27.872 27.872 0 0 1 167.7 50.95 Q 167.7 56.7 164.875 61.15 A 18.008 18.008 0 0 1 159.189 66.742 A 22.903 22.903 0 0 1 156.65 68.125 Q 151.816 70.386 145.058 70.623 A 45.919 45.919 0 0 1 143.45 70.65 Q 136.6 70.65 130.625 68.5 Q 124.65 66.35 120.3 62.2 Z M 77.25 0.95 L 103.75 0.95 L 103.75 47.4 A 34.288 34.288 0 0 1 103.23 53.255 A 39.823 39.823 0 0 1 102.825 55.275 Q 101.9 59.35 99.5 62.85 A 16.36 16.36 0 0 1 95.102 67.157 A 20.856 20.856 0 0 1 92.75 68.525 A 18.669 18.669 0 0 1 88.55 69.993 Q 86.52 70.457 84.14 70.617 A 38.739 38.739 0 0 1 81.55 70.7 A 29.326 29.326 0 0 1 74.509 69.814 A 34.763 34.763 0 0 1 72.1 69.125 Q 67.25 67.55 63.25 64.5 L 66.4 60.05 A 42.037 42.037 0 0 0 69.839 61.982 Q 72.603 63.357 75.025 63.95 Q 77.989 64.677 80.325 64.848 A 18.879 18.879 0 0 0 81.7 64.9 A 19.318 19.318 0 0 0 86.379 64.367 A 12.702 12.702 0 0 0 93.425 59.95 Q 97.4 55 97.4 46.7 L 97.4 6.55 L 77.25 6.55 L 77.25 0.95 Z M 50 87.65 L 0 87.65 L 0 81.8 L 50 81.8 L 50 87.65 Z M 230 87.65 L 180 87.65 L 180 81.8 L 230 81.8 L 230 87.65 Z" vector-effect="non-scaling-stroke"/></g></svg>